# xmcd
#
# Track frame offsets:
#	150
#	17655
#	38325
#	51340
#	63690
#	85975
#	110865
#	128635
#	145925
#	165015
#	178532
#	196017
#	216762
#	230027
#	242565
#	267392
#	284755
#	303735
#
# Disc length: 4225 seconds
#
# Revision: 0
# Processed by: cddbd v1.5.1PL2 Copyright (c) Steve Scherf et al.
# Submitted via: EasyCDDAExtractor 9.1.3.1
#
DISCID=05107f12
DTITLE=Paulo André - Coletânea
DYEAR=2004
DGENRE=Forró Gospel
TTITLE0=Homem de Deus
TTITLE1=Você está Abençoado
TTITLE2=Cadê o Vaso
TTITLE3=Sapato de Fogo
TTITLE4=Fogo no Tentador
TTITLE5=Deixa Deus te Usar
TTITLE6=Faixa Crente Carona
TTITLE7=Expulsa Ele
TTITLE8=Quem Planta Colhe
TTITLE9=Igreja no Interior
TTITLE10=Playback 1
TTITLE11=Playback 2
TTITLE12=Playback 3
TTITLE13=Playback 4
TTITLE14=Playback 5
TTITLE15=Playback 6
TTITLE16=Playback 7
TTITLE17=Playback 8
EXTD=
EXTT0=
EXTT1=
EXTT2=
EXTT3=
EXTT4=
EXTT5=
EXTT6=
EXTT7=
EXTT8=
EXTT9=
EXTT10=
EXTT11=
EXTT12=
EXTT13=
EXTT14=
EXTT15=
EXTT16=
EXTT17=
PLAYORDER=
